Coordinates
version=1
nRows=12
nColumns=28
inDegrees=yes

Units are S.I. units (second, meters, Newtons, ...)
Angles are in degrees.

endheader
time	pelvis_tilt	pelvis_list	pelvis_rotation	pelvis_tx	pelvis_ty	pelvis_tz	hip_flexion_r	hip_adduction_r	hip_rotation_r	knee_angle_r	ankle_angle_r	subtalar_angle_r	mtp_angle_r	hip_flexion_l	hip_adduction_l	hip_rotation_l	knee_angle_l	socket_flexion	socket_adduction	socket_rotation	socket_tx	socket_ty	socket_tz	foot_flex	lumbar_extension	lumbar_bending	lumbar_rotation
      0.96666667	      4.22945466	     -2.46062799	     -4.06201501	      0.38761206	      1.02226315	      0.29719279	      3.69485566	     10.14818911	      7.59697079	    -21.93365107	      9.07429071	    -14.18900760	     21.91039232	      7.24465201	     -9.37546296	      1.35030263	    -65.95670389	    -11.13451157	      6.27496884	     15.67536798	      0.00000000	      0.03044413	      0.00000000	      2.94109564	    -12.20107406	      1.53260411	     10.75545512
      0.97083333	      4.16411424	     -2.33555519	     -4.33006784	      0.39204474	      1.02317223	      0.29754564	      3.33330207	      9.90776048	      7.59298818	    -21.60844636	      9.00192249	    -13.39640459	     22.47428387	      7.93093271	     -9.30637780	      1.29706858	    -65.78557770	    -11.15340979	      6.20172508	     15.68955794	      0.00000000	      0.03093196	      0.00000000	      2.98608340	    -12.13822113	      1.33460365	     11.23022312
      0.97500000	      4.16872029	     -2.20409711	     -4.55892307	      0.39634836	      1.02413631	      0.29802274	      2.93759082	      9.71024372	      7.69025191	    -21.39597076	      9.03393374	    -13.16644892	     22.52212517	      8.46480507	     -9.18452488	      1.40478815	    -65.39335837	    -11.15085303	      6.25526526	     15.60998070	      0.00000000	      0.03094254	      0.00000000	      2.94946634	    -12.18689913	      1.11535944	     11.26257949
      0.97916667	      4.14537164	     -2.09894755	     -4.81163802	      0.40070583	      1.02502864	      0.29843121	      2.54972114	      9.51806175	      7.75941441	    -21.12735025	      8.99622970	    -12.85105638	     22.59774476	      9.01345782	     -9.08981297	      1.49033965	    -64.98679496	    -11.14707973	      6.30083034	     15.54637611	      0.00000000	      0.03095140	      0.00000000	      2.97008160	    -12.19513490	      0.94387032	     11.41031248
      0.98333333	      4.12141176	     -2.00182775	     -5.06517990	      0.40498135	      1.02586686	      0.29889794	      2.18688728	      9.34449176	      7.84138045	    -20.89885848	      8.95422739	    -12.54061838	     22.65714006	      9.54440715	     -9.00902711	      1.56777610	    -64.52518063	    -11.14801507	      6.33165389	     15.47327369	      0.00000000	      0.03085480	      0.00000000	      2.94011600	    -12.20008404	      0.78678216	     11.56305680
      0.98750000	      4.07099721	     -1.92409182	     -5.34193745	      0.40937342	      1.02665999	      0.29929707	      1.82927383	      9.17553451	      7.90752662	    -20.63245980	      8.90556328	    -12.18627372	     22.75351362	     10.08046712	     -8.94044739	      1.62414272	    -64.03948132	    -11.14483440	      6.35630214	     15.38498034	      0.00000000	      0.03081714	      0.00000000	      2.97320274	    -12.17522378	      0.64821075	     11.78544367
      0.99166667	      4.04074820	     -1.84981035	     -5.62604035	      0.41358624	      1.02740705	      0.29975576	      1.51970656	      9.01830200	      7.95328639	    -20.49034077	      8.87156658	    -11.93698076	     22.78410789	     10.56785332	     -8.88172382	      1.69794984	    -63.45508426	    -11.13293443	      6.40302532	     15.34216364	      0.00000000	      0.03056387	      0.00000000	      2.95081008	    -12.19075558	      0.51580146	     11.89613279
      0.99583333	      3.98771105	     -1.78783265	     -5.87993016	      0.41789890	      1.02813210	      0.30013710	      1.15315169	      8.87827498	      8.07551176	    -20.19324985	      8.82426633	    -11.57894576	     22.86570864	     11.11382981	     -8.82482771	      1.76952502	    -62.93959348	    -11.13525314	      6.38588231	     15.22023002	      0.00000000	      0.03058115	      0.00000000	      2.94419328	    -12.16725358	      0.39046653	     12.11642637
      1.00000000	      3.94502957	     -1.72913021	     -6.19410571	      0.42225086	      1.02875821	      0.30060363	      0.85108395	      8.72361459	      8.10398501	    -20.04167775	      8.78483812	    -11.31839384	     22.90000828	     11.51871614	     -8.77519376	      1.81328774	    -62.21525247	    -11.11589121	      6.42967807	     15.10465209	      0.00000000	      0.03001894	      0.00000000	      2.94765693	    -12.13760257	      0.27040659	     12.24472406
      1.00416667	      3.88391114	     -1.69390861	     -6.45107050	      0.42644564	      1.02941136	      0.30094549	      0.48200048	      8.61065104	      8.29265785	    -19.71356001	      8.72980573	    -10.90751806	     23.02320783	     12.07493773	     -8.73391065	      1.92607372	    -61.66658592	    -11.11717823	      6.44357821	     14.92546299	      0.00000000	      0.03010138	      0.00000000	      2.91979895	    -12.12238984	      0.18105465	     12.54651067
      1.00833333	      3.80894888	     -1.67092571	     -6.72250488	      0.43067263	      1.02995338	      0.30134671	      0.18317690	      8.50811418	      8.38308870	    -19.48867697	      8.68163478	    -10.59993354	     23.12126184	     12.57722709	     -8.72202755	      2.01311958	    -61.00412237	    -11.10932288	      6.44486483	     14.81036452	      0.00000000	      0.02990850	      0.00000000	      2.89998642	    -12.11084368	      0.10444998	     12.76751123
      1.01250000	      3.66486143	     -1.71110874	     -6.99163673	      0.43506882	      1.03033597	      0.30168506	     -0.08315056	      8.46940820	      8.48119752	    -19.21086257	      8.57994693	    -10.20728800	     23.40860625	     13.10977325	     -8.78670272	      2.09885611	    -60.30969707	    -11.10569880	      6.47265448	     14.64287675	      0.00000000	      0.02955793	      0.00000000	      3.00816013	    -11.94092962	      0.10486194	     13.19122973
